<?xml version="1.0" encoding="UTF-8" ?>
<svg version="1.1" width="192" height="192" xmlns="http://www.w3.org/2000/svg" shape-rendering="crispEdges">
<rect x="90" y="72" width="1" height="1" fill="#000000" />
<rect x="91" y="72" width="1" height="1" fill="#000000" />
<rect x="92" y="72" width="1" height="1" fill="#000000" />
<rect x="93" y="72" width="1" height="1" fill="#000000" />
<rect x="94" y="72" width="1" height="1" fill="#000000" />
<rect x="95" y="72" width="1" height="1" fill="#000000" />
<rect x="90" y="73" width="1" height="1" fill="#000000" />
<rect x="91" y="73" width="1" height="1" fill="#000000" />
<rect x="92" y="73" width="1" height="1" fill="#000000" />
<rect x="93" y="73" width="1" height="1" fill="#000000" />
<rect x="94" y="73" width="1" height="1" fill="#000000" />
<rect x="95" y="73" width="1" height="1" fill="#000000" />
<rect x="90" y="74" width="1" height="1" fill="#000000" />
<rect x="91" y="74" width="1" height="1" fill="#000000" />
<rect x="92" y="74" width="1" height="1" fill="#000000" />
<rect x="93" y="74" width="1" height="1" fill="#000000" />
<rect x="94" y="74" width="1" height="1" fill="#000000" />
<rect x="95" y="74" width="1" height="1" fill="#000000" />
<rect x="90" y="75" width="1" height="1" fill="#000000" />
<rect x="91" y="75" width="1" height="1" fill="#000000" />
<rect x="92" y="75" width="1" height="1" fill="#000000" />
<rect x="93" y="75" width="1" height="1" fill="#000000" />
<rect x="94" y="75" width="1" height="1" fill="#000000" />
<rect x="95" y="75" width="1" height="1" fill="#000000" />
<rect x="90" y="76" width="1" height="1" fill="#000000" />
<rect x="91" y="76" width="1" height="1" fill="#000000" />
<rect x="92" y="76" width="1" height="1" fill="#000000" />
<rect x="93" y="76" width="1" height="1" fill="#000000" />
<rect x="94" y="76" width="1" height="1" fill="#000000" />
<rect x="95" y="76" width="1" height="1" fill="#000000" />
<rect x="90" y="77" width="1" height="1" fill="#000000" />
<rect x="91" y="77" width="1" height="1" fill="#000000" />
<rect x="92" y="77" width="1" height="1" fill="#000000" />
<rect x="93" y="77" width="1" height="1" fill="#000000" />
<rect x="94" y="77" width="1" height="1" fill="#000000" />
<rect x="95" y="77" width="1" height="1" fill="#000000" />
<rect x="90" y="78" width="1" height="1" fill="#000000" />
<rect x="91" y="78" width="1" height="1" fill="#000000" />
<rect x="92" y="78" width="1" height="1" fill="#000000" />
<rect x="93" y="78" width="1" height="1" fill="#000000" />
<rect x="94" y="78" width="1" height="1" fill="#000000" />
<rect x="95" y="78" width="1" height="1" fill="#000000" />
<rect x="90" y="79" width="1" height="1" fill="#000000" />
<rect x="91" y="79" width="1" height="1" fill="#000000" />
<rect x="92" y="79" width="1" height="1" fill="#000000" />
<rect x="93" y="79" width="1" height="1" fill="#000000" />
<rect x="94" y="79" width="1" height="1" fill="#000000" />
<rect x="95" y="79" width="1" height="1" fill="#000000" />
<rect x="90" y="80" width="1" height="1" fill="#000000" />
<rect x="91" y="80" width="1" height="1" fill="#000000" />
<rect x="92" y="80" width="1" height="1" fill="#000000" />
<rect x="93" y="80" width="1" height="1" fill="#000000" />
<rect x="94" y="80" width="1" height="1" fill="#000000" />
<rect x="95" y="80" width="1" height="1" fill="#000000" />
<rect x="90" y="81" width="1" height="1" fill="#000000" />
<rect x="91" y="81" width="1" height="1" fill="#000000" />
<rect x="92" y="81" width="1" height="1" fill="#000000" />
<rect x="93" y="81" width="1" height="1" fill="#000000" />
<rect x="94" y="81" width="1" height="1" fill="#000000" />
<rect x="95" y="81" width="1" height="1" fill="#000000" />
<rect x="90" y="82" width="1" height="1" fill="#000000" />
<rect x="91" y="82" width="1" height="1" fill="#000000" />
<rect x="92" y="82" width="1" height="1" fill="#000000" />
<rect x="93" y="82" width="1" height="1" fill="#000000" />
<rect x="94" y="82" width="1" height="1" fill="#000000" />
<rect x="95" y="82" width="1" height="1" fill="#000000" />
<rect x="90" y="83" width="1" height="1" fill="#000000" />
<rect x="91" y="83" width="1" height="1" fill="#000000" />
<rect x="92" y="83" width="1" height="1" fill="#000000" />
<rect x="93" y="83" width="1" height="1" fill="#000000" />
<rect x="94" y="83" width="1" height="1" fill="#000000" />
<rect x="95" y="83" width="1" height="1" fill="#000000" />
<rect x="90" y="84" width="1" height="1" fill="#000000" />
<rect x="91" y="84" width="1" height="1" fill="#000000" />
<rect x="92" y="84" width="1" height="1" fill="#000000" />
<rect x="93" y="84" width="1" height="1" fill="#000000" />
<rect x="94" y="84" width="1" height="1" fill="#000000" />
<rect x="95" y="84" width="1" height="1" fill="#000000" />
<rect x="90" y="85" width="1" height="1" fill="#000000" />
<rect x="91" y="85" width="1" height="1" fill="#000000" />
<rect x="92" y="85" width="1" height="1" fill="#000000" />
<rect x="93" y="85" width="1" height="1" fill="#000000" />
<rect x="94" y="85" width="1" height="1" fill="#000000" />
<rect x="95" y="85" width="1" height="1" fill="#000000" />
<rect x="90" y="86" width="1" height="1" fill="#000000" />
<rect x="91" y="86" width="1" height="1" fill="#000000" />
<rect x="92" y="86" width="1" height="1" fill="#000000" />
<rect x="93" y="86" width="1" height="1" fill="#000000" />
<rect x="94" y="86" width="1" height="1" fill="#000000" />
<rect x="95" y="86" width="1" height="1" fill="#000000" />
<rect x="90" y="87" width="1" height="1" fill="#000000" />
<rect x="91" y="87" width="1" height="1" fill="#000000" />
<rect x="92" y="87" width="1" height="1" fill="#000000" />
<rect x="93" y="87" width="1" height="1" fill="#000000" />
<rect x="94" y="87" width="1" height="1" fill="#000000" />
<rect x="95" y="87" width="1" height="1" fill="#000000" />
<rect x="90" y="88" width="1" height="1" fill="#000000" />
<rect x="91" y="88" width="1" height="1" fill="#000000" />
<rect x="92" y="88" width="1" height="1" fill="#000000" />
<rect x="93" y="88" width="1" height="1" fill="#000000" />
<rect x="94" y="88" width="1" height="1" fill="#000000" />
<rect x="95" y="88" width="1" height="1" fill="#000000" />
<rect x="90" y="89" width="1" height="1" fill="#000000" />
<rect x="91" y="89" width="1" height="1" fill="#000000" />
<rect x="92" y="89" width="1" height="1" fill="#000000" />
<rect x="93" y="89" width="1" height="1" fill="#000000" />
<rect x="94" y="89" width="1" height="1" fill="#000000" />
<rect x="95" y="89" width="1" height="1" fill="#000000" />
<rect x="84" y="90" width="1" height="1" fill="#000000" />
<rect x="85" y="90" width="1" height="1" fill="#000000" />
<rect x="86" y="90" width="1" height="1" fill="#000000" />
<rect x="87" y="90" width="1" height="1" fill="#000000" />
<rect x="88" y="90" width="1" height="1" fill="#000000" />
<rect x="89" y="90" width="1" height="1" fill="#000000" />
<rect x="90" y="90" width="1" height="1" fill="#000000" />
<rect x="91" y="90" width="1" height="1" fill="#000000" />
<rect x="92" y="90" width="1" height="1" fill="#000000" />
<rect x="93" y="90" width="1" height="1" fill="#000000" />
<rect x="94" y="90" width="1" height="1" fill="#000000" />
<rect x="95" y="90" width="1" height="1" fill="#000000" />
<rect x="96" y="90" width="1" height="1" fill="#000000" />
<rect x="97" y="90" width="1" height="1" fill="#000000" />
<rect x="98" y="90" width="1" height="1" fill="#000000" />
<rect x="99" y="90" width="1" height="1" fill="#000000" />
<rect x="100" y="90" width="1" height="1" fill="#000000" />
<rect x="101" y="90" width="1" height="1" fill="#000000" />
<rect x="102" y="90" width="1" height="1" fill="#000000" />
<rect x="103" y="90" width="1" height="1" fill="#000000" />
<rect x="104" y="90" width="1" height="1" fill="#000000" />
<rect x="105" y="90" width="1" height="1" fill="#000000" />
<rect x="106" y="90" width="1" height="1" fill="#000000" />
<rect x="107" y="90" width="1" height="1" fill="#000000" />
<rect x="108" y="90" width="1" height="1" fill="#000000" />
<rect x="109" y="90" width="1" height="1" fill="#000000" />
<rect x="110" y="90" width="1" height="1" fill="#000000" />
<rect x="111" y="90" width="1" height="1" fill="#000000" />
<rect x="112" y="90" width="1" height="1" fill="#000000" />
<rect x="113" y="90" width="1" height="1" fill="#000000" />
<rect x="84" y="91" width="1" height="1" fill="#000000" />
<rect x="85" y="91" width="1" height="1" fill="#000000" />
<rect x="86" y="91" width="1" height="1" fill="#000000" />
<rect x="87" y="91" width="1" height="1" fill="#000000" />
<rect x="88" y="91" width="1" height="1" fill="#000000" />
<rect x="89" y="91" width="1" height="1" fill="#000000" />
<rect x="90" y="91" width="1" height="1" fill="#000000" />
<rect x="91" y="91" width="1" height="1" fill="#000000" />
<rect x="92" y="91" width="1" height="1" fill="#000000" />
<rect x="93" y="91" width="1" height="1" fill="#000000" />
<rect x="94" y="91" width="1" height="1" fill="#000000" />
<rect x="95" y="91" width="1" height="1" fill="#000000" />
<rect x="96" y="91" width="1" height="1" fill="#000000" />
<rect x="97" y="91" width="1" height="1" fill="#000000" />
<rect x="98" y="91" width="1" height="1" fill="#000000" />
<rect x="99" y="91" width="1" height="1" fill="#000000" />
<rect x="100" y="91" width="1" height="1" fill="#000000" />
<rect x="101" y="91" width="1" height="1" fill="#000000" />
<rect x="102" y="91" width="1" height="1" fill="#000000" />
<rect x="103" y="91" width="1" height="1" fill="#000000" />
<rect x="104" y="91" width="1" height="1" fill="#000000" />
<rect x="105" y="91" width="1" height="1" fill="#000000" />
<rect x="106" y="91" width="1" height="1" fill="#000000" />
<rect x="107" y="91" width="1" height="1" fill="#000000" />
<rect x="108" y="91" width="1" height="1" fill="#000000" />
<rect x="109" y="91" width="1" height="1" fill="#000000" />
<rect x="110" y="91" width="1" height="1" fill="#000000" />
<rect x="111" y="91" width="1" height="1" fill="#000000" />
<rect x="112" y="91" width="1" height="1" fill="#000000" />
<rect x="113" y="91" width="1" height="1" fill="#000000" />
<rect x="84" y="92" width="1" height="1" fill="#000000" />
<rect x="85" y="92" width="1" height="1" fill="#000000" />
<rect x="86" y="92" width="1" height="1" fill="#000000" />
<rect x="87" y="92" width="1" height="1" fill="#000000" />
<rect x="88" y="92" width="1" height="1" fill="#000000" />
<rect x="89" y="92" width="1" height="1" fill="#000000" />
<rect x="90" y="92" width="1" height="1" fill="#000000" />
<rect x="91" y="92" width="1" height="1" fill="#000000" />
<rect x="92" y="92" width="1" height="1" fill="#000000" />
<rect x="93" y="92" width="1" height="1" fill="#000000" />
<rect x="94" y="92" width="1" height="1" fill="#000000" />
<rect x="95" y="92" width="1" height="1" fill="#000000" />
<rect x="96" y="92" width="1" height="1" fill="#000000" />
<rect x="97" y="92" width="1" height="1" fill="#000000" />
<rect x="98" y="92" width="1" height="1" fill="#000000" />
<rect x="99" y="92" width="1" height="1" fill="#000000" />
<rect x="100" y="92" width="1" height="1" fill="#000000" />
<rect x="101" y="92" width="1" height="1" fill="#000000" />
<rect x="102" y="92" width="1" height="1" fill="#000000" />
<rect x="103" y="92" width="1" height="1" fill="#000000" />
<rect x="104" y="92" width="1" height="1" fill="#000000" />
<rect x="105" y="92" width="1" height="1" fill="#000000" />
<rect x="106" y="92" width="1" height="1" fill="#000000" />
<rect x="107" y="92" width="1" height="1" fill="#000000" />
<rect x="108" y="92" width="1" height="1" fill="#000000" />
<rect x="109" y="92" width="1" height="1" fill="#000000" />
<rect x="110" y="92" width="1" height="1" fill="#000000" />
<rect x="111" y="92" width="1" height="1" fill="#000000" />
<rect x="112" y="92" width="1" height="1" fill="#000000" />
<rect x="113" y="92" width="1" height="1" fill="#000000" />
<rect x="84" y="93" width="1" height="1" fill="#000000" />
<rect x="85" y="93" width="1" height="1" fill="#000000" />
<rect x="86" y="93" width="1" height="1" fill="#000000" />
<rect x="87" y="93" width="1" height="1" fill="#000000" />
<rect x="88" y="93" width="1" height="1" fill="#000000" />
<rect x="89" y="93" width="1" height="1" fill="#000000" />
<rect x="90" y="93" width="1" height="1" fill="#000000" />
<rect x="91" y="93" width="1" height="1" fill="#000000" />
<rect x="92" y="93" width="1" height="1" fill="#000000" />
<rect x="93" y="93" width="1" height="1" fill="#000000" />
<rect x="94" y="93" width="1" height="1" fill="#000000" />
<rect x="95" y="93" width="1" height="1" fill="#000000" />
<rect x="96" y="93" width="1" height="1" fill="#000000" />
<rect x="97" y="93" width="1" height="1" fill="#000000" />
<rect x="98" y="93" width="1" height="1" fill="#000000" />
<rect x="99" y="93" width="1" height="1" fill="#000000" />
<rect x="100" y="93" width="1" height="1" fill="#000000" />
<rect x="101" y="93" width="1" height="1" fill="#000000" />
<rect x="102" y="93" width="1" height="1" fill="#000000" />
<rect x="103" y="93" width="1" height="1" fill="#000000" />
<rect x="104" y="93" width="1" height="1" fill="#000000" />
<rect x="105" y="93" width="1" height="1" fill="#000000" />
<rect x="106" y="93" width="1" height="1" fill="#000000" />
<rect x="107" y="93" width="1" height="1" fill="#000000" />
<rect x="108" y="93" width="1" height="1" fill="#000000" />
<rect x="109" y="93" width="1" height="1" fill="#000000" />
<rect x="110" y="93" width="1" height="1" fill="#000000" />
<rect x="111" y="93" width="1" height="1" fill="#000000" />
<rect x="112" y="93" width="1" height="1" fill="#000000" />
<rect x="113" y="93" width="1" height="1" fill="#000000" />
<rect x="84" y="94" width="1" height="1" fill="#000000" />
<rect x="85" y="94" width="1" height="1" fill="#000000" />
<rect x="86" y="94" width="1" height="1" fill="#000000" />
<rect x="87" y="94" width="1" height="1" fill="#000000" />
<rect x="88" y="94" width="1" height="1" fill="#000000" />
<rect x="89" y="94" width="1" height="1" fill="#000000" />
<rect x="90" y="94" width="1" height="1" fill="#000000" />
<rect x="91" y="94" width="1" height="1" fill="#000000" />
<rect x="92" y="94" width="1" height="1" fill="#000000" />
<rect x="93" y="94" width="1" height="1" fill="#000000" />
<rect x="94" y="94" width="1" height="1" fill="#000000" />
<rect x="95" y="94" width="1" height="1" fill="#000000" />
<rect x="96" y="94" width="1" height="1" fill="#000000" />
<rect x="97" y="94" width="1" height="1" fill="#000000" />
<rect x="98" y="94" width="1" height="1" fill="#000000" />
<rect x="99" y="94" width="1" height="1" fill="#000000" />
<rect x="100" y="94" width="1" height="1" fill="#000000" />
<rect x="101" y="94" width="1" height="1" fill="#000000" />
<rect x="102" y="94" width="1" height="1" fill="#000000" />
<rect x="103" y="94" width="1" height="1" fill="#000000" />
<rect x="104" y="94" width="1" height="1" fill="#000000" />
<rect x="105" y="94" width="1" height="1" fill="#000000" />
<rect x="106" y="94" width="1" height="1" fill="#000000" />
<rect x="107" y="94" width="1" height="1" fill="#000000" />
<rect x="108" y="94" width="1" height="1" fill="#000000" />
<rect x="109" y="94" width="1" height="1" fill="#000000" />
<rect x="110" y="94" width="1" height="1" fill="#000000" />
<rect x="111" y="94" width="1" height="1" fill="#000000" />
<rect x="112" y="94" width="1" height="1" fill="#000000" />
<rect x="113" y="94" width="1" height="1" fill="#000000" />
<rect x="84" y="95" width="1" height="1" fill="#000000" />
<rect x="85" y="95" width="1" height="1" fill="#000000" />
<rect x="86" y="95" width="1" height="1" fill="#000000" />
<rect x="87" y="95" width="1" height="1" fill="#000000" />
<rect x="88" y="95" width="1" height="1" fill="#000000" />
<rect x="89" y="95" width="1" height="1" fill="#000000" />
<rect x="90" y="95" width="1" height="1" fill="#000000" />
<rect x="91" y="95" width="1" height="1" fill="#000000" />
<rect x="92" y="95" width="1" height="1" fill="#000000" />
<rect x="93" y="95" width="1" height="1" fill="#000000" />
<rect x="94" y="95" width="1" height="1" fill="#000000" />
<rect x="95" y="95" width="1" height="1" fill="#000000" />
<rect x="96" y="95" width="1" height="1" fill="#000000" />
<rect x="97" y="95" width="1" height="1" fill="#000000" />
<rect x="98" y="95" width="1" height="1" fill="#000000" />
<rect x="99" y="95" width="1" height="1" fill="#000000" />
<rect x="100" y="95" width="1" height="1" fill="#000000" />
<rect x="101" y="95" width="1" height="1" fill="#000000" />
<rect x="102" y="95" width="1" height="1" fill="#000000" />
<rect x="103" y="95" width="1" height="1" fill="#000000" />
<rect x="104" y="95" width="1" height="1" fill="#000000" />
<rect x="105" y="95" width="1" height="1" fill="#000000" />
<rect x="106" y="95" width="1" height="1" fill="#000000" />
<rect x="107" y="95" width="1" height="1" fill="#000000" />
<rect x="108" y="95" width="1" height="1" fill="#000000" />
<rect x="109" y="95" width="1" height="1" fill="#000000" />
<rect x="110" y="95" width="1" height="1" fill="#000000" />
<rect x="111" y="95" width="1" height="1" fill="#000000" />
<rect x="112" y="95" width="1" height="1" fill="#000000" />
<rect x="113" y="95" width="1" height="1" fill="#000000" />
<rect x="84" y="96" width="1" height="1" fill="#000000" />
<rect x="85" y="96" width="1" height="1" fill="#000000" />
<rect x="86" y="96" width="1" height="1" fill="#000000" />
<rect x="87" y="96" width="1" height="1" fill="#000000" />
<rect x="88" y="96" width="1" height="1" fill="#000000" />
<rect x="89" y="96" width="1" height="1" fill="#000000" />
<rect x="90" y="96" width="1" height="1" fill="#000000" />
<rect x="91" y="96" width="1" height="1" fill="#000000" />
<rect x="92" y="96" width="1" height="1" fill="#000000" />
<rect x="93" y="96" width="1" height="1" fill="#000000" />
<rect x="94" y="96" width="1" height="1" fill="#000000" />
<rect x="95" y="96" width="1" height="1" fill="#000000" />
<rect x="96" y="96" width="1" height="1" fill="#9CDB43" />
<rect x="97" y="96" width="1" height="1" fill="#9CDB43" />
<rect x="98" y="96" width="1" height="1" fill="#9CDB43" />
<rect x="99" y="96" width="1" height="1" fill="#9CDB43" />
<rect x="100" y="96" width="1" height="1" fill="#9CDB43" />
<rect x="101" y="96" width="1" height="1" fill="#9CDB43" />
<rect x="102" y="96" width="1" height="1" fill="#9CDB43" />
<rect x="103" y="96" width="1" height="1" fill="#9CDB43" />
<rect x="104" y="96" width="1" height="1" fill="#9CDB43" />
<rect x="105" y="96" width="1" height="1" fill="#9CDB43" />
<rect x="106" y="96" width="1" height="1" fill="#9CDB43" />
<rect x="107" y="96" width="1" height="1" fill="#9CDB43" />
<rect x="108" y="96" width="1" height="1" fill="#000000" />
<rect x="109" y="96" width="1" height="1" fill="#000000" />
<rect x="110" y="96" width="1" height="1" fill="#000000" />
<rect x="111" y="96" width="1" height="1" fill="#000000" />
<rect x="112" y="96" width="1" height="1" fill="#000000" />
<rect x="113" y="96" width="1" height="1" fill="#000000" />
<rect x="84" y="97" width="1" height="1" fill="#000000" />
<rect x="85" y="97" width="1" height="1" fill="#000000" />
<rect x="86" y="97" width="1" height="1" fill="#000000" />
<rect x="87" y="97" width="1" height="1" fill="#000000" />
<rect x="88" y="97" width="1" height="1" fill="#000000" />
<rect x="89" y="97" width="1" height="1" fill="#000000" />
<rect x="90" y="97" width="1" height="1" fill="#000000" />
<rect x="91" y="97" width="1" height="1" fill="#000000" />
<rect x="92" y="97" width="1" height="1" fill="#000000" />
<rect x="93" y="97" width="1" height="1" fill="#000000" />
<rect x="94" y="97" width="1" height="1" fill="#000000" />
<rect x="95" y="97" width="1" height="1" fill="#000000" />
<rect x="96" y="97" width="1" height="1" fill="#9CDB43" />
<rect x="97" y="97" width="1" height="1" fill="#9CDB43" />
<rect x="98" y="97" width="1" height="1" fill="#9CDB43" />
<rect x="99" y="97" width="1" height="1" fill="#9CDB43" />
<rect x="100" y="97" width="1" height="1" fill="#9CDB43" />
<rect x="101" y="97" width="1" height="1" fill="#9CDB43" />
<rect x="102" y="97" width="1" height="1" fill="#9CDB43" />
<rect x="103" y="97" width="1" height="1" fill="#9CDB43" />
<rect x="104" y="97" width="1" height="1" fill="#9CDB43" />
<rect x="105" y="97" width="1" height="1" fill="#9CDB43" />
<rect x="106" y="97" width="1" height="1" fill="#9CDB43" />
<rect x="107" y="97" width="1" height="1" fill="#9CDB43" />
<rect x="108" y="97" width="1" height="1" fill="#000000" />
<rect x="109" y="97" width="1" height="1" fill="#000000" />
<rect x="110" y="97" width="1" height="1" fill="#000000" />
<rect x="111" y="97" width="1" height="1" fill="#000000" />
<rect x="112" y="97" width="1" height="1" fill="#000000" />
<rect x="113" y="97" width="1" height="1" fill="#000000" />
<rect x="84" y="98" width="1" height="1" fill="#000000" />
<rect x="85" y="98" width="1" height="1" fill="#000000" />
<rect x="86" y="98" width="1" height="1" fill="#000000" />
<rect x="87" y="98" width="1" height="1" fill="#000000" />
<rect x="88" y="98" width="1" height="1" fill="#000000" />
<rect x="89" y="98" width="1" height="1" fill="#000000" />
<rect x="90" y="98" width="1" height="1" fill="#000000" />
<rect x="91" y="98" width="1" height="1" fill="#000000" />
<rect x="92" y="98" width="1" height="1" fill="#000000" />
<rect x="93" y="98" width="1" height="1" fill="#000000" />
<rect x="94" y="98" width="1" height="1" fill="#000000" />
<rect x="95" y="98" width="1" height="1" fill="#000000" />
<rect x="96" y="98" width="1" height="1" fill="#9CDB43" />
<rect x="97" y="98" width="1" height="1" fill="#9CDB43" />
<rect x="98" y="98" width="1" height="1" fill="#9CDB43" />
<rect x="99" y="98" width="1" height="1" fill="#9CDB43" />
<rect x="100" y="98" width="1" height="1" fill="#9CDB43" />
<rect x="101" y="98" width="1" height="1" fill="#9CDB43" />
<rect x="102" y="98" width="1" height="1" fill="#9CDB43" />
<rect x="103" y="98" width="1" height="1" fill="#9CDB43" />
<rect x="104" y="98" width="1" height="1" fill="#9CDB43" />
<rect x="105" y="98" width="1" height="1" fill="#9CDB43" />
<rect x="106" y="98" width="1" height="1" fill="#9CDB43" />
<rect x="107" y="98" width="1" height="1" fill="#9CDB43" />
<rect x="108" y="98" width="1" height="1" fill="#000000" />
<rect x="109" y="98" width="1" height="1" fill="#000000" />
<rect x="110" y="98" width="1" height="1" fill="#000000" />
<rect x="111" y="98" width="1" height="1" fill="#000000" />
<rect x="112" y="98" width="1" height="1" fill="#000000" />
<rect x="113" y="98" width="1" height="1" fill="#000000" />
<rect x="84" y="99" width="1" height="1" fill="#000000" />
<rect x="85" y="99" width="1" height="1" fill="#000000" />
<rect x="86" y="99" width="1" height="1" fill="#000000" />
<rect x="87" y="99" width="1" height="1" fill="#000000" />
<rect x="88" y="99" width="1" height="1" fill="#000000" />
<rect x="89" y="99" width="1" height="1" fill="#000000" />
<rect x="90" y="99" width="1" height="1" fill="#000000" />
<rect x="91" y="99" width="1" height="1" fill="#000000" />
<rect x="92" y="99" width="1" height="1" fill="#000000" />
<rect x="93" y="99" width="1" height="1" fill="#000000" />
<rect x="94" y="99" width="1" height="1" fill="#000000" />
<rect x="95" y="99" width="1" height="1" fill="#000000" />
<rect x="96" y="99" width="1" height="1" fill="#9CDB43" />
<rect x="97" y="99" width="1" height="1" fill="#9CDB43" />
<rect x="98" y="99" width="1" height="1" fill="#9CDB43" />
<rect x="99" y="99" width="1" height="1" fill="#9CDB43" />
<rect x="100" y="99" width="1" height="1" fill="#9CDB43" />
<rect x="101" y="99" width="1" height="1" fill="#9CDB43" />
<rect x="102" y="99" width="1" height="1" fill="#9CDB43" />
<rect x="103" y="99" width="1" height="1" fill="#9CDB43" />
<rect x="104" y="99" width="1" height="1" fill="#9CDB43" />
<rect x="105" y="99" width="1" height="1" fill="#9CDB43" />
<rect x="106" y="99" width="1" height="1" fill="#9CDB43" />
<rect x="107" y="99" width="1" height="1" fill="#9CDB43" />
<rect x="108" y="99" width="1" height="1" fill="#000000" />
<rect x="109" y="99" width="1" height="1" fill="#000000" />
<rect x="110" y="99" width="1" height="1" fill="#000000" />
<rect x="111" y="99" width="1" height="1" fill="#000000" />
<rect x="112" y="99" width="1" height="1" fill="#000000" />
<rect x="113" y="99" width="1" height="1" fill="#000000" />
<rect x="84" y="100" width="1" height="1" fill="#000000" />
<rect x="85" y="100" width="1" height="1" fill="#000000" />
<rect x="86" y="100" width="1" height="1" fill="#000000" />
<rect x="87" y="100" width="1" height="1" fill="#000000" />
<rect x="88" y="100" width="1" height="1" fill="#000000" />
<rect x="89" y="100" width="1" height="1" fill="#000000" />
<rect x="90" y="100" width="1" height="1" fill="#000000" />
<rect x="91" y="100" width="1" height="1" fill="#000000" />
<rect x="92" y="100" width="1" height="1" fill="#000000" />
<rect x="93" y="100" width="1" height="1" fill="#000000" />
<rect x="94" y="100" width="1" height="1" fill="#000000" />
<rect x="95" y="100" width="1" height="1" fill="#000000" />
<rect x="96" y="100" width="1" height="1" fill="#9CDB43" />
<rect x="97" y="100" width="1" height="1" fill="#9CDB43" />
<rect x="98" y="100" width="1" height="1" fill="#9CDB43" />
<rect x="99" y="100" width="1" height="1" fill="#9CDB43" />
<rect x="100" y="100" width="1" height="1" fill="#9CDB43" />
<rect x="101" y="100" width="1" height="1" fill="#9CDB43" />
<rect x="102" y="100" width="1" height="1" fill="#9CDB43" />
<rect x="103" y="100" width="1" height="1" fill="#9CDB43" />
<rect x="104" y="100" width="1" height="1" fill="#9CDB43" />
<rect x="105" y="100" width="1" height="1" fill="#9CDB43" />
<rect x="106" y="100" width="1" height="1" fill="#9CDB43" />
<rect x="107" y="100" width="1" height="1" fill="#9CDB43" />
<rect x="108" y="100" width="1" height="1" fill="#000000" />
<rect x="109" y="100" width="1" height="1" fill="#000000" />
<rect x="110" y="100" width="1" height="1" fill="#000000" />
<rect x="111" y="100" width="1" height="1" fill="#000000" />
<rect x="112" y="100" width="1" height="1" fill="#000000" />
<rect x="113" y="100" width="1" height="1" fill="#000000" />
<rect x="84" y="101" width="1" height="1" fill="#000000" />
<rect x="85" y="101" width="1" height="1" fill="#000000" />
<rect x="86" y="101" width="1" height="1" fill="#000000" />
<rect x="87" y="101" width="1" height="1" fill="#000000" />
<rect x="88" y="101" width="1" height="1" fill="#000000" />
<rect x="89" y="101" width="1" height="1" fill="#000000" />
<rect x="90" y="101" width="1" height="1" fill="#000000" />
<rect x="91" y="101" width="1" height="1" fill="#000000" />
<rect x="92" y="101" width="1" height="1" fill="#000000" />
<rect x="93" y="101" width="1" height="1" fill="#000000" />
<rect x="94" y="101" width="1" height="1" fill="#000000" />
<rect x="95" y="101" width="1" height="1" fill="#000000" />
<rect x="96" y="101" width="1" height="1" fill="#9CDB43" />
<rect x="97" y="101" width="1" height="1" fill="#9CDB43" />
<rect x="98" y="101" width="1" height="1" fill="#9CDB43" />
<rect x="99" y="101" width="1" height="1" fill="#9CDB43" />
<rect x="100" y="101" width="1" height="1" fill="#9CDB43" />
<rect x="101" y="101" width="1" height="1" fill="#9CDB43" />
<rect x="102" y="101" width="1" height="1" fill="#9CDB43" />
<rect x="103" y="101" width="1" height="1" fill="#9CDB43" />
<rect x="104" y="101" width="1" height="1" fill="#9CDB43" />
<rect x="105" y="101" width="1" height="1" fill="#9CDB43" />
<rect x="106" y="101" width="1" height="1" fill="#9CDB43" />
<rect x="107" y="101" width="1" height="1" fill="#9CDB43" />
<rect x="108" y="101" width="1" height="1" fill="#000000" />
<rect x="109" y="101" width="1" height="1" fill="#000000" />
<rect x="110" y="101" width="1" height="1" fill="#000000" />
<rect x="111" y="101" width="1" height="1" fill="#000000" />
<rect x="112" y="101" width="1" height="1" fill="#000000" />
<rect x="113" y="101" width="1" height="1" fill="#000000" />
<rect x="84" y="102" width="1" height="1" fill="#000000" />
<rect x="85" y="102" width="1" height="1" fill="#000000" />
<rect x="86" y="102" width="1" height="1" fill="#000000" />
<rect x="87" y="102" width="1" height="1" fill="#000000" />
<rect x="88" y="102" width="1" height="1" fill="#000000" />
<rect x="89" y="102" width="1" height="1" fill="#000000" />
<rect x="90" y="102" width="1" height="1" fill="#000000" />
<rect x="91" y="102" width="1" height="1" fill="#000000" />
<rect x="92" y="102" width="1" height="1" fill="#000000" />
<rect x="93" y="102" width="1" height="1" fill="#000000" />
<rect x="94" y="102" width="1" height="1" fill="#000000" />
<rect x="95" y="102" width="1" height="1" fill="#000000" />
<rect x="96" y="102" width="1" height="1" fill="#000000" />
<rect x="97" y="102" width="1" height="1" fill="#000000" />
<rect x="98" y="102" width="1" height="1" fill="#000000" />
<rect x="99" y="102" width="1" height="1" fill="#000000" />
<rect x="100" y="102" width="1" height="1" fill="#000000" />
<rect x="101" y="102" width="1" height="1" fill="#000000" />
<rect x="102" y="102" width="1" height="1" fill="#000000" />
<rect x="103" y="102" width="1" height="1" fill="#000000" />
<rect x="104" y="102" width="1" height="1" fill="#000000" />
<rect x="105" y="102" width="1" height="1" fill="#000000" />
<rect x="106" y="102" width="1" height="1" fill="#000000" />
<rect x="107" y="102" width="1" height="1" fill="#000000" />
<rect x="108" y="102" width="1" height="1" fill="#000000" />
<rect x="109" y="102" width="1" height="1" fill="#000000" />
<rect x="110" y="102" width="1" height="1" fill="#000000" />
<rect x="111" y="102" width="1" height="1" fill="#000000" />
<rect x="112" y="102" width="1" height="1" fill="#000000" />
<rect x="113" y="102" width="1" height="1" fill="#000000" />
<rect x="84" y="103" width="1" height="1" fill="#000000" />
<rect x="85" y="103" width="1" height="1" fill="#000000" />
<rect x="86" y="103" width="1" height="1" fill="#000000" />
<rect x="87" y="103" width="1" height="1" fill="#000000" />
<rect x="88" y="103" width="1" height="1" fill="#000000" />
<rect x="89" y="103" width="1" height="1" fill="#000000" />
<rect x="90" y="103" width="1" height="1" fill="#000000" />
<rect x="91" y="103" width="1" height="1" fill="#000000" />
<rect x="92" y="103" width="1" height="1" fill="#000000" />
<rect x="93" y="103" width="1" height="1" fill="#000000" />
<rect x="94" y="103" width="1" height="1" fill="#000000" />
<rect x="95" y="103" width="1" height="1" fill="#000000" />
<rect x="96" y="103" width="1" height="1" fill="#000000" />
<rect x="97" y="103" width="1" height="1" fill="#000000" />
<rect x="98" y="103" width="1" height="1" fill="#000000" />
<rect x="99" y="103" width="1" height="1" fill="#000000" />
<rect x="100" y="103" width="1" height="1" fill="#000000" />
<rect x="101" y="103" width="1" height="1" fill="#000000" />
<rect x="102" y="103" width="1" height="1" fill="#000000" />
<rect x="103" y="103" width="1" height="1" fill="#000000" />
<rect x="104" y="103" width="1" height="1" fill="#000000" />
<rect x="105" y="103" width="1" height="1" fill="#000000" />
<rect x="106" y="103" width="1" height="1" fill="#000000" />
<rect x="107" y="103" width="1" height="1" fill="#000000" />
<rect x="108" y="103" width="1" height="1" fill="#000000" />
<rect x="109" y="103" width="1" height="1" fill="#000000" />
<rect x="110" y="103" width="1" height="1" fill="#000000" />
<rect x="111" y="103" width="1" height="1" fill="#000000" />
<rect x="112" y="103" width="1" height="1" fill="#000000" />
<rect x="113" y="103" width="1" height="1" fill="#000000" />
<rect x="84" y="104" width="1" height="1" fill="#000000" />
<rect x="85" y="104" width="1" height="1" fill="#000000" />
<rect x="86" y="104" width="1" height="1" fill="#000000" />
<rect x="87" y="104" width="1" height="1" fill="#000000" />
<rect x="88" y="104" width="1" height="1" fill="#000000" />
<rect x="89" y="104" width="1" height="1" fill="#000000" />
<rect x="90" y="104" width="1" height="1" fill="#000000" />
<rect x="91" y="104" width="1" height="1" fill="#000000" />
<rect x="92" y="104" width="1" height="1" fill="#000000" />
<rect x="93" y="104" width="1" height="1" fill="#000000" />
<rect x="94" y="104" width="1" height="1" fill="#000000" />
<rect x="95" y="104" width="1" height="1" fill="#000000" />
<rect x="96" y="104" width="1" height="1" fill="#000000" />
<rect x="97" y="104" width="1" height="1" fill="#000000" />
<rect x="98" y="104" width="1" height="1" fill="#000000" />
<rect x="99" y="104" width="1" height="1" fill="#000000" />
<rect x="100" y="104" width="1" height="1" fill="#000000" />
<rect x="101" y="104" width="1" height="1" fill="#000000" />
<rect x="102" y="104" width="1" height="1" fill="#000000" />
<rect x="103" y="104" width="1" height="1" fill="#000000" />
<rect x="104" y="104" width="1" height="1" fill="#000000" />
<rect x="105" y="104" width="1" height="1" fill="#000000" />
<rect x="106" y="104" width="1" height="1" fill="#000000" />
<rect x="107" y="104" width="1" height="1" fill="#000000" />
<rect x="108" y="104" width="1" height="1" fill="#000000" />
<rect x="109" y="104" width="1" height="1" fill="#000000" />
<rect x="110" y="104" width="1" height="1" fill="#000000" />
<rect x="111" y="104" width="1" height="1" fill="#000000" />
<rect x="112" y="104" width="1" height="1" fill="#000000" />
<rect x="113" y="104" width="1" height="1" fill="#000000" />
<rect x="84" y="105" width="1" height="1" fill="#000000" />
<rect x="85" y="105" width="1" height="1" fill="#000000" />
<rect x="86" y="105" width="1" height="1" fill="#000000" />
<rect x="87" y="105" width="1" height="1" fill="#000000" />
<rect x="88" y="105" width="1" height="1" fill="#000000" />
<rect x="89" y="105" width="1" height="1" fill="#000000" />
<rect x="90" y="105" width="1" height="1" fill="#000000" />
<rect x="91" y="105" width="1" height="1" fill="#000000" />
<rect x="92" y="105" width="1" height="1" fill="#000000" />
<rect x="93" y="105" width="1" height="1" fill="#000000" />
<rect x="94" y="105" width="1" height="1" fill="#000000" />
<rect x="95" y="105" width="1" height="1" fill="#000000" />
<rect x="96" y="105" width="1" height="1" fill="#000000" />
<rect x="97" y="105" width="1" height="1" fill="#000000" />
<rect x="98" y="105" width="1" height="1" fill="#000000" />
<rect x="99" y="105" width="1" height="1" fill="#000000" />
<rect x="100" y="105" width="1" height="1" fill="#000000" />
<rect x="101" y="105" width="1" height="1" fill="#000000" />
<rect x="102" y="105" width="1" height="1" fill="#000000" />
<rect x="103" y="105" width="1" height="1" fill="#000000" />
<rect x="104" y="105" width="1" height="1" fill="#000000" />
<rect x="105" y="105" width="1" height="1" fill="#000000" />
<rect x="106" y="105" width="1" height="1" fill="#000000" />
<rect x="107" y="105" width="1" height="1" fill="#000000" />
<rect x="108" y="105" width="1" height="1" fill="#000000" />
<rect x="109" y="105" width="1" height="1" fill="#000000" />
<rect x="110" y="105" width="1" height="1" fill="#000000" />
<rect x="111" y="105" width="1" height="1" fill="#000000" />
<rect x="112" y="105" width="1" height="1" fill="#000000" />
<rect x="113" y="105" width="1" height="1" fill="#000000" />
<rect x="84" y="106" width="1" height="1" fill="#000000" />
<rect x="85" y="106" width="1" height="1" fill="#000000" />
<rect x="86" y="106" width="1" height="1" fill="#000000" />
<rect x="87" y="106" width="1" height="1" fill="#000000" />
<rect x="88" y="106" width="1" height="1" fill="#000000" />
<rect x="89" y="106" width="1" height="1" fill="#000000" />
<rect x="90" y="106" width="1" height="1" fill="#000000" />
<rect x="91" y="106" width="1" height="1" fill="#000000" />
<rect x="92" y="106" width="1" height="1" fill="#000000" />
<rect x="93" y="106" width="1" height="1" fill="#000000" />
<rect x="94" y="106" width="1" height="1" fill="#000000" />
<rect x="95" y="106" width="1" height="1" fill="#000000" />
<rect x="96" y="106" width="1" height="1" fill="#000000" />
<rect x="97" y="106" width="1" height="1" fill="#000000" />
<rect x="98" y="106" width="1" height="1" fill="#000000" />
<rect x="99" y="106" width="1" height="1" fill="#000000" />
<rect x="100" y="106" width="1" height="1" fill="#000000" />
<rect x="101" y="106" width="1" height="1" fill="#000000" />
<rect x="102" y="106" width="1" height="1" fill="#000000" />
<rect x="103" y="106" width="1" height="1" fill="#000000" />
<rect x="104" y="106" width="1" height="1" fill="#000000" />
<rect x="105" y="106" width="1" height="1" fill="#000000" />
<rect x="106" y="106" width="1" height="1" fill="#000000" />
<rect x="107" y="106" width="1" height="1" fill="#000000" />
<rect x="108" y="106" width="1" height="1" fill="#000000" />
<rect x="109" y="106" width="1" height="1" fill="#000000" />
<rect x="110" y="106" width="1" height="1" fill="#000000" />
<rect x="111" y="106" width="1" height="1" fill="#000000" />
<rect x="112" y="106" width="1" height="1" fill="#000000" />
<rect x="113" y="106" width="1" height="1" fill="#000000" />
<rect x="84" y="107" width="1" height="1" fill="#000000" />
<rect x="85" y="107" width="1" height="1" fill="#000000" />
<rect x="86" y="107" width="1" height="1" fill="#000000" />
<rect x="87" y="107" width="1" height="1" fill="#000000" />
<rect x="88" y="107" width="1" height="1" fill="#000000" />
<rect x="89" y="107" width="1" height="1" fill="#000000" />
<rect x="90" y="107" width="1" height="1" fill="#000000" />
<rect x="91" y="107" width="1" height="1" fill="#000000" />
<rect x="92" y="107" width="1" height="1" fill="#000000" />
<rect x="93" y="107" width="1" height="1" fill="#000000" />
<rect x="94" y="107" width="1" height="1" fill="#000000" />
<rect x="95" y="107" width="1" height="1" fill="#000000" />
<rect x="96" y="107" width="1" height="1" fill="#000000" />
<rect x="97" y="107" width="1" height="1" fill="#000000" />
<rect x="98" y="107" width="1" height="1" fill="#000000" />
<rect x="99" y="107" width="1" height="1" fill="#000000" />
<rect x="100" y="107" width="1" height="1" fill="#000000" />
<rect x="101" y="107" width="1" height="1" fill="#000000" />
<rect x="102" y="107" width="1" height="1" fill="#000000" />
<rect x="103" y="107" width="1" height="1" fill="#000000" />
<rect x="104" y="107" width="1" height="1" fill="#000000" />
<rect x="105" y="107" width="1" height="1" fill="#000000" />
<rect x="106" y="107" width="1" height="1" fill="#000000" />
<rect x="107" y="107" width="1" height="1" fill="#000000" />
<rect x="108" y="107" width="1" height="1" fill="#000000" />
<rect x="109" y="107" width="1" height="1" fill="#000000" />
<rect x="110" y="107" width="1" height="1" fill="#000000" />
<rect x="111" y="107" width="1" height="1" fill="#000000" />
<rect x="112" y="107" width="1" height="1" fill="#000000" />
<rect x="113" y="107" width="1" height="1" fill="#000000" />
<rect x="90" y="108" width="1" height="1" fill="#000000" />
<rect x="91" y="108" width="1" height="1" fill="#000000" />
<rect x="92" y="108" width="1" height="1" fill="#000000" />
<rect x="93" y="108" width="1" height="1" fill="#000000" />
<rect x="94" y="108" width="1" height="1" fill="#000000" />
<rect x="95" y="108" width="1" height="1" fill="#000000" />
<rect x="96" y="108" width="1" height="1" fill="#000000" />
<rect x="97" y="108" width="1" height="1" fill="#000000" />
<rect x="98" y="108" width="1" height="1" fill="#000000" />
<rect x="99" y="108" width="1" height="1" fill="#000000" />
<rect x="100" y="108" width="1" height="1" fill="#000000" />
<rect x="101" y="108" width="1" height="1" fill="#000000" />
<rect x="90" y="109" width="1" height="1" fill="#000000" />
<rect x="91" y="109" width="1" height="1" fill="#000000" />
<rect x="92" y="109" width="1" height="1" fill="#000000" />
<rect x="93" y="109" width="1" height="1" fill="#000000" />
<rect x="94" y="109" width="1" height="1" fill="#000000" />
<rect x="95" y="109" width="1" height="1" fill="#000000" />
<rect x="96" y="109" width="1" height="1" fill="#000000" />
<rect x="97" y="109" width="1" height="1" fill="#000000" />
<rect x="98" y="109" width="1" height="1" fill="#000000" />
<rect x="99" y="109" width="1" height="1" fill="#000000" />
<rect x="100" y="109" width="1" height="1" fill="#000000" />
<rect x="101" y="109" width="1" height="1" fill="#000000" />
<rect x="90" y="110" width="1" height="1" fill="#000000" />
<rect x="91" y="110" width="1" height="1" fill="#000000" />
<rect x="92" y="110" width="1" height="1" fill="#000000" />
<rect x="93" y="110" width="1" height="1" fill="#000000" />
<rect x="94" y="110" width="1" height="1" fill="#000000" />
<rect x="95" y="110" width="1" height="1" fill="#000000" />
<rect x="96" y="110" width="1" height="1" fill="#000000" />
<rect x="97" y="110" width="1" height="1" fill="#000000" />
<rect x="98" y="110" width="1" height="1" fill="#000000" />
<rect x="99" y="110" width="1" height="1" fill="#000000" />
<rect x="100" y="110" width="1" height="1" fill="#000000" />
<rect x="101" y="110" width="1" height="1" fill="#000000" />
<rect x="90" y="111" width="1" height="1" fill="#000000" />
<rect x="91" y="111" width="1" height="1" fill="#000000" />
<rect x="92" y="111" width="1" height="1" fill="#000000" />
<rect x="93" y="111" width="1" height="1" fill="#000000" />
<rect x="94" y="111" width="1" height="1" fill="#000000" />
<rect x="95" y="111" width="1" height="1" fill="#000000" />
<rect x="96" y="111" width="1" height="1" fill="#000000" />
<rect x="97" y="111" width="1" height="1" fill="#000000" />
<rect x="98" y="111" width="1" height="1" fill="#000000" />
<rect x="99" y="111" width="1" height="1" fill="#000000" />
<rect x="100" y="111" width="1" height="1" fill="#000000" />
<rect x="101" y="111" width="1" height="1" fill="#000000" />
<rect x="90" y="112" width="1" height="1" fill="#000000" />
<rect x="91" y="112" width="1" height="1" fill="#000000" />
<rect x="92" y="112" width="1" height="1" fill="#000000" />
<rect x="93" y="112" width="1" height="1" fill="#000000" />
<rect x="94" y="112" width="1" height="1" fill="#000000" />
<rect x="95" y="112" width="1" height="1" fill="#000000" />
<rect x="96" y="112" width="1" height="1" fill="#000000" />
<rect x="97" y="112" width="1" height="1" fill="#000000" />
<rect x="98" y="112" width="1" height="1" fill="#000000" />
<rect x="99" y="112" width="1" height="1" fill="#000000" />
<rect x="100" y="112" width="1" height="1" fill="#000000" />
<rect x="101" y="112" width="1" height="1" fill="#000000" />
<rect x="90" y="113" width="1" height="1" fill="#000000" />
<rect x="91" y="113" width="1" height="1" fill="#000000" />
<rect x="92" y="113" width="1" height="1" fill="#000000" />
<rect x="93" y="113" width="1" height="1" fill="#000000" />
<rect x="94" y="113" width="1" height="1" fill="#000000" />
<rect x="95" y="113" width="1" height="1" fill="#000000" />
<rect x="96" y="113" width="1" height="1" fill="#000000" />
<rect x="97" y="113" width="1" height="1" fill="#000000" />
<rect x="98" y="113" width="1" height="1" fill="#000000" />
<rect x="99" y="113" width="1" height="1" fill="#000000" />
<rect x="100" y="113" width="1" height="1" fill="#000000" />
<rect x="101" y="113" width="1" height="1" fill="#000000" />
</svg>